<?xml version="1.0" standalone="no"?>
<!DOCTYPE svg PUBLIC "-//W3C//DTD SVG 20010904//EN"
 "http://www.w3.org/TR/2001/REC-SVG-20010904/DTD/svg10.dtd">
<svg version="1.0" xmlns="http://www.w3.org/2000/svg"
 width="2560.000000pt" height="2560.000000pt" viewBox="0 0 2560.000000 2560.000000"
 preserveAspectRatio="xMidYMid meet">
<metadata>
Created by potrace 1.11, written by Peter Selinger 2001-2013
</metadata>
<g transform="translate(0.000000,2560.000000) scale(0.100000,-0.100000)"
fill="#000000" stroke="none">
<path d="M20495 17486 c-128 -61 -335 -150 -470 -201 -33 -13 -73 -28 -90 -35
-16 -6 -31 -11 -32 -11 -2 0 -19 -7 -40 -15 -20 -9 -44 -17 -52 -19 -9 -2 -68
-22 -131 -44 -63 -23 -123 -42 -135 -44 -11 -2 -27 -6 -35 -10 -8 -3 -24 -8
-35 -13 -11 -4 -24 -8 -30 -9 -5 -1 -13 -3 -17 -5 -5 -1 -11 -3 -15 -4 -5 -2
-28 -8 -53 -15 -25 -7 -52 -15 -60 -17 -8 -2 -51 -13 -95 -24 -44 -12 -91 -24
-105 -27 -27 -5 -32 -7 -70 -16 -14 -4 -36 -9 -50 -11 -14 -3 -58 -12 -97 -20
-40 -9 -85 -18 -100 -21 -16 -2 -50 -9 -78 -14 -27 -5 -53 -7 -57 -5 -5 3 -8
1 -8 -3 0 -5 -8 -9 -17 -9 -20 -1 -93 -11 -133 -18 -14 -3 -50 -7 -80 -10 -30
-4 -65 -8 -77 -10 -12 -3 -53 -7 -91 -11 -38 -3 -78 -7 -89 -9 -98 -19 -869
-28 -1053 -13 -41 4 -113 10 -160 14 -111 9 -545 9 -635 -1 -38 -4 -86 -9
-105 -11 -33 -4 -76 -11 -130 -21 -14 -3 -41 -7 -60 -10 -43 -6 -275 -60 -275
-64 0 -1 -7 -3 -15 -5 -30 -6 -135 -38 -145 -43 -24 -14 -134 -49 -139 -44 -4
3 -6 1 -6 -5 0 -6 -11 -14 -25 -17 -24 -6 -183 -77 -219 -97 -10 -6 -58 -31
-105 -56 -47 -25 -105 -59 -128 -74 -23 -16 -46 -29 -52 -29 -6 0 -11 -4 -11
-10 0 -5 -7 -10 -15 -10 -8 0 -15 -4 -15 -9 0 -5 -9 -12 -19 -16 -16 -5 -122
-76 -166 -112 -5 -4 -41 -33 -80 -63 -38 -30 -81 -64 -95 -76 -172 -148 -230
-204 -395 -378 -24 -26 -135 -152 -161 -184 -10 -13 -36 -42 -56 -65 -21 -23
-38 -45 -38 -49 0 -4 -10 -18 -22 -32 -13 -13 -30 -34 -38 -47 -8 -12 -25 -33
-37 -47 -13 -14 -23 -28 -23 -32 0 -3 -8 -15 -17 -26 -19 -21 -53 -68 -124
-174 -24 -36 -47 -67 -50 -70 -3 -3 -8 -12 -12 -20 -4 -8 -23 -40 -43 -70
l-35 -55 50 54 c28 30 51 57 51 60 0 10 307 331 316 331 1 0 24 20 50 45 52
50 96 88 194 165 36 28 73 57 83 65 9 8 21 15 26 15 5 0 11 7 15 15 3 8 12 15
20 15 8 0 16 4 18 8 9 23 259 175 438 266 123 63 433 190 475 195 3 1 6 1 8 2
1 0 9 2 17 5 8 2 65 17 125 34 61 16 124 32 140 35 17 3 37 8 45 10 19 5 64
14 113 21 47 7 72 12 72 14 0 1 18 3 40 5 21 3 53 7 70 9 124 20 700 28 840
12 28 -3 75 -8 105 -10 30 -3 73 -8 95 -11 22 -4 54 -8 70 -10 17 -2 44 -5 60
-8 17 -3 53 -8 80 -12 28 -3 64 -8 80 -11 169 -24 643 -23 760 1 11 2 47 7 80
10 33 4 78 10 100 15 22 5 56 11 75 14 55 9 125 23 125 26 0 1 11 4 25 6 109
19 475 140 605 199 37 16 108 48 115 50 3 1 23 10 45 20 22 10 44 19 48 19 4
1 11 7 16 14 5 8 12 13 17 13 13 0 134 58 167 81 15 11 27 16 27 13 0 -4 7 1
16 9 8 9 22 16 30 16 8 0 14 4 14 9 0 5 10 13 21 16 29 10 304 183 418 263 74
53 295 221 331 252 10 8 32 26 50 40 17 13 42 33 54 45 12 11 40 35 62 53 34
28 83 71 198 175 17 15 28 27 26 27 -3 0 -36 -15 -75 -34z"/>
<path d="M10136 15922 c-41 -16 -116 -81 -116 -100 0 -7 -4 -12 -9 -12 -14 0
-104 -217 -101 -247 0 -2 0 -4 -1 -5 -14 -48 -19 -337 -6 -393 9 -42 15 -64
25 -105 5 -19 11 -42 13 -50 2 -8 6 -17 9 -20 3 -3 23 -40 45 -82 21 -43 43
-78 47 -78 4 0 8 -6 8 -14 0 -7 7 -19 15 -26 9 -7 13 -15 11 -17 -2 -3 3 -13
12 -23 29 -32 42 -49 42 -55 0 -5 87 -119 115 -152 5 -6 26 -30 45 -53 58 -71
69 -83 123 -144 53 -60 281 -290 463 -467 90 -88 174 -177 174 -185 0 -4 29
-40 50 -63 9 -9 29 -34 45 -56 16 -22 32 -42 35 -45 3 -3 22 -27 41 -55 38
-54 58 -81 77 -100 6 -8 12 -18 12 -24 0 -6 5 -11 10 -11 6 0 10 -5 10 -11 0
-6 6 -17 13 -24 6 -7 28 -36 47 -64 35 -51 61 -70 38 -28 -7 12 -13 24 -13 27
-3 19 -29 87 -36 94 -5 6 -9 15 -9 22 0 6 -10 33 -22 60 -12 27 -22 51 -23 54
-1 6 -93 189 -121 240 -10 19 -22 37 -26 38 -5 2 -8 8 -8 14 0 5 -12 28 -27
51 -16 23 -32 50 -38 59 -30 48 -109 159 -121 169 -8 6 -14 18 -14 25 0 8 -3
14 -8 14 -4 0 -31 32 -61 70 -29 39 -57 70 -62 70 -5 0 -9 4 -9 9 0 5 -15 25
-32 43 -51 53 -132 148 -142 166 -5 10 -12 19 -15 22 -27 22 -145 202 -181
275 -8 17 -19 37 -25 45 -7 8 -25 47 -40 85 -16 39 -32 75 -36 80 -6 9 -63
171 -75 215 -19 73 -40 170 -36 170 2 0 -2 7 -9 17 -8 9 -12 17 -10 17 4 1 1
26 -15 131 -16 109 -23 187 -29 334 -2 56 -5 104 -7 106 -2 2 -20 -4 -42 -13z"/>
<path d="M10344 15932 c-10 -7 -10 -9 0 -117 16 -160 36 -293 66 -430 14 -67
14 -68 23 -82 5 -7 6 -13 3 -13 -3 0 -1 -11 4 -25 5 -14 12 -36 14 -48 2 -12
20 -65 41 -117 20 -52 37 -101 37 -107 1 -7 5 -13 10 -13 4 0 8 -6 8 -14 0
-25 133 -256 152 -264 4 -2 8 -8 8 -13 0 -5 8 -18 18 -30 9 -11 25 -30 35 -42
10 -12 81 -87 159 -167 165 -170 188 -195 188 -203 0 -3 10 -17 23 -31 28 -30
121 -168 169 -251 43 -74 115 -207 117 -217 1 -5 13 -34 27 -65 43 -95 54
-121 54 -128 0 -4 6 -21 14 -38 8 -18 24 -61 36 -97 12 -36 25 -72 28 -80 3
-8 4 -18 4 -22 -6 -26 25 4 85 82 37 49 71 90 76 90 4 0 7 7 7 15 0 8 3 15 8
15 4 0 18 17 32 37 14 20 30 41 35 47 6 6 33 40 60 76 28 36 52 67 56 70 3 3
18 23 34 45 17 22 32 42 35 45 3 3 28 34 55 70 28 35 56 71 62 80 7 8 72 92
145 185 73 94 153 195 177 225 24 30 55 70 70 89 43 56 85 106 94 109 4 2 7 8
7 13 0 6 10 20 23 33 23 24 54 60 231 270 22 27 48 56 56 65 8 9 33 39 55 66
22 28 45 55 50 61 6 6 30 35 55 64 25 29 56 65 70 81 47 52 60 69 60 80 0 5 5
7 10 4 6 -3 10 -1 10 4 0 6 8 19 18 29 20 22 48 54 116 137 28 33 52 62 56 65
3 3 25 30 50 60 25 30 54 65 65 77 11 12 36 41 55 64 19 23 43 51 53 61 9 10
15 18 13 18 -2 0 12 16 30 36 19 19 34 39 34 44 0 9 -3372 11 -3386 2z"/>
<path d="M16125 15830 c-22 -16 -45 -33 -50 -38 -6 -5 -24 -17 -40 -27 -17
-10 -40 -28 -52 -39 -13 -11 -23 -15 -23 -10 0 5 -4 4 -8 -1 -10 -14 -89 -65
-101 -65 -5 0 -11 -4 -13 -8 -3 -9 -144 -91 -198 -116 -19 -8 -42 -20 -50 -25
-8 -6 -33 -18 -55 -28 -22 -9 -42 -19 -45 -22 -3 -4 -12 -7 -20 -9 -8 -2 -43
-17 -78 -33 -35 -16 -67 -29 -71 -29 -4 0 -35 -11 -69 -25 -34 -14 -70 -26
-79 -28 -10 -2 -29 -9 -41 -16 -13 -7 -26 -10 -29 -7 -4 3 -11 2 -17 -3 -12
-9 -45 -19 -91 -27 -16 -3 -35 -10 -42 -16 -7 -5 -17 -7 -23 -3 -6 4 -18 1
-27 -7 -9 -7 -17 -11 -17 -10 -1 3 -44 -3 -101 -15 -48 -10 -170 -29 -235 -37
-106 -13 -126 -16 -150 -22 -14 -3 -38 -8 -54 -10 -16 -3 -40 -10 -53 -15 -14
-5 -28 -7 -33 -4 -5 3 -10 1 -12 -4 -1 -6 -14 -11 -28 -13 -14 -2 -31 -7 -37
-11 -7 -5 -13 -5 -13 -2 0 3 -10 -1 -22 -9 -12 -9 -28 -16 -35 -16 -7 0 -52
-20 -100 -44 -124 -61 -153 -78 -182 -103 -14 -13 -29 -23 -33 -23 -28 0 -273
-226 -358 -329 -19 -23 -42 -51 -50 -61 -8 -10 -22 -28 -30 -40 -8 -12 -21
-28 -27 -36 -7 -7 -13 -17 -13 -23 0 -6 -4 -11 -10 -11 -5 0 -10 -5 -10 -10 0
-6 -11 -23 -24 -37 -14 -15 -23 -30 -20 -35 3 -4 1 -8 -4 -8 -4 0 -16 -15 -25
-32 -10 -18 -33 -60 -53 -93 -37 -64 -130 -245 -145 -284 -8 -21 -8 -22 6 -11
8 7 12 16 9 21 -3 5 -1 9 3 9 5 0 17 17 28 38 11 20 30 48 43 62 12 14 22 30
22 37 0 7 6 16 13 20 7 4 23 25 36 45 12 21 28 41 35 45 7 5 20 19 29 32 35
52 239 251 257 251 5 0 10 4 10 9 0 13 188 138 275 183 68 36 234 106 265 112
8 2 22 6 31 10 9 4 27 8 41 10 13 1 28 5 34 9 11 6 44 13 104 23 19 2 46 7 60
10 14 2 39 7 55 10 17 3 53 7 80 8 28 1 56 5 63 9 7 5 12 3 12 -3 0 -6 3 -9 8
-7 4 3 41 8 82 12 117 10 133 12 165 19 17 3 41 8 54 11 13 2 49 12 80 21 31
9 63 18 71 19 8 2 16 4 18 5 1 2 5 3 10 5 35 10 167 68 238 105 122 65 331
206 342 232 2 4 7 8 12 8 20 0 291 263 380 369 25 29 53 63 64 75 10 11 30 37
45 56 14 19 28 37 31 40 11 11 32 40 29 40 -2 0 -22 -14 -44 -30z"/>
<path d="M3938 15805 c-2 -2 -68 -6 -148 -9 -80 -4 -161 -8 -180 -10 -97 -9
-187 -19 -205 -22 -11 -3 -36 -7 -55 -9 -19 -3 -44 -8 -56 -10 -12 -3 -39 -7
-60 -11 -21 -3 -66 -12 -99 -20 -33 -8 -70 -17 -82 -20 -12 -2 -33 -8 -45 -13
-13 -5 -27 -9 -33 -10 -14 -2 -117 -31 -135 -38 -8 -3 -17 -7 -20 -8 -3 -1
-12 -4 -20 -7 -8 -3 -44 -16 -80 -29 -36 -12 -74 -27 -85 -33 -11 -6 -22 -10
-25 -11 -14 -1 -165 -70 -168 -77 -2 -4 -12 -8 -23 -8 -10 0 -19 -3 -19 -7 0
-5 -20 -16 -45 -26 -25 -11 -45 -24 -45 -30 0 -6 -3 -8 -6 -4 -9 9 -265 -151
-373 -234 -177 -136 -233 -185 -364 -314 -90 -89 -186 -193 -264 -286 -58 -71
-66 -80 -113 -144 -25 -33 -48 -62 -51 -65 -3 -3 -45 -63 -92 -135 -47 -71
-91 -136 -97 -142 -6 -7 -10 -14 -9 -15 2 -2 -9 -21 -23 -43 -14 -22 -40 -67
-59 -100 -18 -33 -37 -61 -41 -63 -4 -2 -8 -10 -8 -17 0 -8 -13 -37 -29 -64
-17 -28 -45 -81 -62 -118 -18 -37 -38 -71 -43 -75 -6 -4 -8 -8 -4 -8 4 0 -8
-30 -26 -67 -19 -38 -43 -90 -55 -118 -13 -27 -30 -66 -38 -85 -9 -19 -15 -35
-14 -35 1 0 -12 -34 -29 -75 -18 -41 -33 -79 -34 -85 -2 -5 -7 -19 -11 -30
-34 -84 -54 -141 -101 -284 -57 -171 -114 -366 -140 -476 -9 -39 -11 -44 -14
-47 -2 -4 -10 -40 -12 -60 -1 -10 -6 -18 -11 -18 -4 0 -6 -4 -3 -8 4 -8 -8
-76 -21 -112 -3 -8 -7 -26 -9 -40 -1 -14 -5 -36 -8 -50 -4 -14 -9 -38 -12 -54
-2 -16 -6 -32 -8 -35 -4 -6 -18 -105 -19 -128 0 -7 -4 -13 -8 -13 -4 0 -7 -10
-7 -22 0 -25 -9 -93 -12 -93 -2 0 -7 -35 -11 -92 -2 -24 -6 -43 -9 -43 -3 0
-6 -12 -6 -27 -1 -16 -4 -48 -7 -73 -3 -25 -9 -70 -12 -100 -3 -30 -8 -73 -10
-95 -16 -146 -20 -254 -20 -605 0 -405 8 -579 31 -710 4 -19 8 -46 10 -60 1
-14 6 -41 10 -60 5 -19 9 -39 9 -45 3 -20 26 -100 38 -130 6 -16 12 -36 13
-43 4 -23 97 -202 106 -202 4 0 8 -5 8 -11 0 -12 75 -105 115 -144 12 -12 44
-39 71 -60 27 -22 51 -43 54 -46 10 -11 156 -96 202 -117 108 -50 204 -89 218
-90 3 0 18 -5 33 -11 15 -6 40 -14 55 -17 15 -3 34 -8 42 -11 19 -7 39 -13 65
-18 11 -2 30 -6 42 -9 13 -4 33 -8 45 -12 13 -3 34 -7 48 -10 14 -2 31 -7 38
-9 7 -2 34 -7 60 -11 26 -3 51 -8 55 -11 4 -2 24 -7 45 -9 39 -4 81 -11 122
-18 14 -3 50 -8 80 -11 30 -2 66 -7 80 -10 14 -2 52 -7 85 -10 33 -2 80 -7
105 -9 45 -5 147 -13 270 -22 236 -16 564 -26 912 -27 183 -1 294 -5 291 -11
-4 -5 -1 -6 8 0 21 13 1089 13 1089 0 0 -7 3 -7 8 0 8 12 50 13 68 1 6 -3 14
-3 18 1 13 12 749 11 765 -2 9 -6 12 -7 9 -1 -9 15 1044 15 1054 1 6 -8 8 -8
8 0 0 7 31 11 89 11 55 -1 88 -5 84 -10 -4 -6 -1 -7 8 -1 8 5 52 9 99 9 l85 0
47 95 c26 52 47 102 47 111 1 9 8 22 16 29 9 7 14 15 11 17 -2 3 13 40 35 84
21 43 39 81 39 83 0 2 18 43 41 91 22 49 67 147 99 219 32 72 70 158 85 191
16 33 28 66 28 73 0 6 4 12 9 12 4 0 8 5 8 10 0 6 9 30 20 52 11 23 20 48 20
55 0 7 4 13 10 13 5 0 9 3 8 8 -3 13 14 62 21 62 4 0 8 6 8 13 0 6 4 19 7 28
7 15 -74 16 -951 18 -1239 3 -1353 4 -1353 14 0 5 -6 5 -12 0 -18 -11 -61 -11
-75 0 -8 6 -13 6 -13 0 0 -5 -15 -8 -32 -6 -18 1 -145 5 -283 8 -333 7 -622
18 -810 31 -44 3 -111 7 -150 10 -38 2 -92 6 -120 9 -266 24 -323 30 -460 50
-11 2 -20 4 -20 5 0 1 -11 3 -25 4 -44 5 -195 36 -276 57 -102 27 -96 25 -119
33 -11 5 -31 12 -45 16 -14 4 -34 12 -45 16 -11 4 -22 8 -25 8 -20 4 -180 89
-198 106 -12 11 -22 18 -22 15 0 -3 -17 11 -37 30 -20 19 -41 35 -46 35 -4 0
-5 5 -2 10 3 6 2 10 -4 10 -13 0 -72 82 -105 146 -42 81 -72 197 -81 309 -2
22 -4 40 -5 40 -5 0 -5 235 1 272 3 27 2 40 -4 36 -6 -3 -7 -1 -3 6 4 6 10 40
12 74 7 92 20 239 28 312 3 22 8 67 11 100 13 127 14 140 15 140 1 0 3 20 5
45 3 25 7 64 10 88 3 23 8 63 11 90 6 54 32 223 41 267 3 17 7 39 8 50 2 11 4
20 5 20 1 0 3 9 5 20 1 11 10 49 19 85 17 66 18 71 31 125 4 17 10 35 14 40 3
6 6 15 7 20 4 25 45 148 78 235 40 103 38 99 90 213 20 44 36 83 36 87 0 5 5
10 10 12 6 2 12 13 13 26 0 12 4 22 7 22 3 0 16 21 30 48 39 74 94 167 103
170 4 2 7 8 7 14 0 8 127 199 160 241 5 7 43 53 83 102 107 130 174 197 342
344 73 64 289 204 299 194 3 -4 6 -1 6 5 0 7 3 11 8 10 4 -1 21 5 39 15 59 31
194 76 283 93 19 3 1066 7 2325 8 1260 1 2300 6 2313 10 12 4 22 13 22 19 0 7
13 39 29 72 16 33 39 83 51 110 12 28 31 70 43 95 12 25 22 50 23 55 1 6 20
51 41 100 43 97 55 127 58 135 0 3 12 30 25 60 14 30 24 58 22 63 -1 4 3 7 8
7 6 0 10 6 10 14 0 12 64 170 107 266 9 19 16 41 16 48 0 6 4 12 9 12 4 0 8 7
8 16 0 8 9 34 19 57 10 23 30 70 44 105 23 55 24 62 9 63 -42 3 -5051 7 -5054
4z"/>
<path d="M17380 15768 c-8 -24 -14 -45 -15 -48 0 -3 -9 -30 -19 -60 -10 -30
-20 -62 -22 -70 -3 -8 -4 -15 -3 -15 1 0 -3 -10 -10 -23 -7 -13 -14 -31 -16
-41 -2 -9 -22 -73 -45 -142 -23 -68 -43 -128 -44 -134 -12 -48 -40 -132 -46
-140 -5 -5 -9 -14 -9 -20 -1 -5 -7 -28 -13 -50 -6 -22 -12 -42 -13 -45 0 -3
-8 -27 -18 -55 -9 -27 -17 -53 -17 -57 -1 -4 -8 -27 -16 -50 -27 -75 -71 -237
-66 -243 3 -3 1212 -5 2686 -5 2679 0 2681 0 2648 -20 -17 -11 -34 -20 -37
-20 -3 0 -41 -25 -85 -55 -45 -30 -85 -55 -90 -55 -6 0 -10 -4 -10 -10 0 -5
-5 -10 -10 -10 -11 0 -71 -39 -81 -53 -3 -5 -10 -9 -15 -9 -5 0 -45 -24 -89
-53 -44 -28 -91 -58 -104 -65 -14 -7 -34 -21 -45 -31 -11 -11 -23 -19 -27 -19
-8 0 -214 -131 -236 -150 -7 -5 -17 -10 -22 -10 -5 0 -16 -6 -23 -13 -7 -7
-74 -50 -148 -97 -74 -46 -139 -88 -145 -93 -26 -21 -111 -71 -117 -69 -5 1
-8 -3 -8 -8 0 -6 -6 -10 -14 -10 -8 0 -16 -4 -18 -8 -1 -4 -38 -30 -81 -58
-43 -27 -91 -57 -105 -67 -15 -9 -35 -20 -44 -23 -10 -4 -18 -10 -18 -15 0 -5
-7 -9 -15 -9 -8 0 -15 -4 -15 -9 0 -5 -8 -11 -17 -15 -19 -6 -54 -27 -63 -37
-3 -3 -12 -8 -20 -12 -8 -4 -55 -34 -105 -67 -49 -33 -97 -63 -105 -67 -8 -4
-17 -9 -20 -12 -3 -4 -34 -24 -70 -45 -36 -22 -67 -43 -70 -46 -3 -4 -18 -15
-35 -24 -43 -24 -138 -84 -368 -233 -54 -35 -102 -63 -107 -63 -4 0 -10 -3
-12 -8 -2 -6 -204 -138 -285 -187 -9 -5 -67 -43 -129 -82 -62 -40 -116 -73
-120 -73 -4 0 -15 -7 -24 -15 -18 -16 -219 -145 -226 -145 -3 0 -10 -5 -17
-11 -7 -5 -48 -33 -92 -61 -44 -28 -107 -68 -140 -89 -33 -21 -65 -43 -72 -48
-7 -6 -15 -11 -17 -11 -6 0 -92 -54 -221 -139 -38 -25 -73 -45 -77 -43 -5 1
-8 -3 -8 -8 0 -6 -11 -15 -25 -20 -14 -5 -31 -15 -38 -21 -6 -6 -93 -62 -192
-124 -99 -63 -185 -118 -192 -124 -6 -6 -28 -20 -48 -31 -20 -11 -66 -40 -103
-65 -37 -25 -72 -45 -79 -45 -7 0 -13 -4 -13 -8 0 -4 -27 -24 -60 -43 -33 -18
-60 -37 -60 -41 0 -5 -6 -8 -14 -8 -8 0 -21 -6 -28 -12 -20 -19 -76 -58 -83
-58 -3 0 -46 -27 -96 -60 -50 -33 -95 -60 -100 -60 -5 0 -9 -4 -9 -9 0 -5 -10
-13 -22 -17 -13 -4 -25 -10 -28 -13 -3 -4 -43 -31 -90 -60 -47 -30 -140 -89
-207 -133 -67 -43 -124 -78 -128 -78 -3 0 -15 -9 -27 -20 -12 -11 -28 -20 -35
-20 -7 0 -13 -3 -13 -8 0 -4 -17 -16 -37 -27 -21 -11 -40 -23 -43 -26 -3 -4
-20 -15 -37 -25 -18 -11 -87 -54 -153 -96 -66 -43 -125 -78 -130 -78 -6 0 -10
-4 -10 -10 0 -5 -7 -10 -15 -10 -8 0 -15 -4 -15 -8 0 -4 -15 -16 -32 -26 -69
-39 -273 -171 -276 -178 -2 -5 -8 -8 -12 -8 -11 0 -204 -123 -208 -132 -2 -5
-8 -8 -13 -8 -9 0 -125 -73 -226 -142 -23 -15 -46 -28 -52 -28 -7 0 -14 -7
-17 -15 -4 -8 -11 -15 -18 -15 -6 0 -42 -20 -79 -45 -61 -42 -70 -52 -103
-123 -49 -103 -77 -166 -79 -172 -1 -3 -8 -21 -17 -40 -8 -19 -34 -80 -58
-135 -23 -55 -53 -124 -66 -153 -13 -29 -24 -55 -24 -58 0 -3 -13 -35 -30 -71
-16 -35 -30 -68 -30 -72 0 -4 -13 -35 -30 -69 -16 -34 -30 -68 -30 -75 0 -7
-8 -24 -17 -37 -10 -14 -17 -27 -17 -30 1 -3 -2 -15 -7 -28 -5 -13 -9 -28 -9
-33 0 -5 -4 -9 -8 -9 -5 0 -9 -6 -9 -12 0 -7 -10 -35 -23 -63 -13 -27 -24 -54
-26 -60 -1 -5 -10 -28 -19 -50 -10 -22 -16 -40 -14 -40 2 -1 -4 -13 -13 -27
-13 -19 -14 -27 -5 -30 7 -2 171 -3 365 -3 241 1 352 -2 352 -9 0 -7 3 -7 8 0
8 12 50 13 68 1 6 -3 14 -3 18 1 13 12 749 11 765 -2 9 -7 12 -7 9 -1 -8 12
469 15 488 3 6 -4 14 -4 18 0 13 12 749 11 765 -2 9 -6 12 -7 9 -1 -4 7 93 11
297 11 191 0 302 -4 298 -10 -4 -5 -1 -6 8 0 19 12 640 13 632 1 -4 -6 -1 -7
8 -1 21 13 1089 13 1089 0 0 -7 3 -7 8 0 8 12 50 13 68 1 6 -3 14 -3 18 1 13
12 749 11 765 -2 9 -6 12 -7 9 -1 -9 15 1044 15 1054 1 6 -8 8 -8 8 0 0 7 31
11 89 11 55 -1 88 -5 84 -10 -4 -6 -1 -7 8 -1 21 13 639 13 631 0 -3 -7 0 -6
9 0 8 7 33 11 57 10 23 -1 46 0 50 3 4 4 36 65 70 136 35 72 67 137 73 145 5
8 13 24 18 35 5 11 63 130 129 265 148 303 238 495 262 557 l9 22 -1637 -4
c-900 -3 -1920 -7 -2267 -9 -1277 -10 -1365 -10 -1365 2 0 6 139 102 198 137
9 6 19 12 22 15 10 10 55 37 61 36 3 -1 13 7 23 16 9 10 49 39 89 65 39 27 82
56 96 65 14 10 36 23 49 29 12 7 22 15 22 18 0 4 16 15 35 25 19 11 35 23 35
28 0 4 6 8 14 8 8 0 21 6 28 13 7 7 94 66 193 132 99 66 182 123 183 128 2 4
10 7 18 7 8 0 14 3 14 8 0 4 23 20 50 37 28 16 50 33 50 37 0 4 4 8 10 8 5 0
56 32 112 70 57 39 110 75 118 80 8 5 61 41 118 80 56 38 106 70 111 70 5 0
11 4 13 8 4 11 288 202 299 202 5 0 9 5 9 10 0 6 6 10 14 10 8 0 16 4 18 8 2
7 204 145 294 202 46 29 319 214 324 220 3 3 13 10 22 15 10 6 104 69 210 140
106 72 197 132 203 134 5 2 15 10 22 17 7 7 47 34 88 60 41 26 75 51 75 56 0
4 5 8 10 8 9 0 307 196 320 210 3 3 30 21 60 40 30 19 57 37 60 40 3 3 46 32
95 64 50 33 93 65 97 70 5 7 8 7 8 1 0 -7 3 -7 8 0 4 6 54 42 112 80 57 39
110 75 117 80 7 6 19 16 28 23 8 7 15 10 15 7 0 -4 17 6 38 22 20 16 98 69
172 119 74 49 137 92 138 97 2 4 10 7 18 7 8 0 14 5 14 12 0 6 3 9 6 5 3 -3
18 5 32 19 15 13 32 24 39 24 6 0 13 3 15 8 2 4 95 69 208 145 113 76 224 151
248 167 23 17 47 30 52 30 6 0 10 4 10 8 0 4 15 16 33 27 17 10 34 21 37 24 3
3 13 11 22 16 36 20 642 430 653 442 7 7 15 10 17 7 3 -2 17 7 31 20 15 14 36
27 47 31 11 3 20 11 20 16 0 5 6 9 14 9 8 0 16 4 18 8 2 5 37 31 78 58 41 26
80 53 87 59 6 5 34 24 62 40 28 17 51 33 51 38 0 4 6 7 14 7 8 0 16 3 18 8 4
10 127 92 138 92 5 0 10 3 12 8 4 10 97 72 107 72 5 0 11 4 13 9 2 4 73 55
158 111 85 57 157 106 160 109 3 4 17 12 31 19 14 8 39 25 54 38 15 13 31 24
35 24 7 0 23 38 21 52 0 3 6 12 14 18 8 7 15 18 15 24 0 11 64 157 151 344 16
34 29 64 29 66 0 3 17 40 37 83 20 43 37 80 38 83 1 3 8 19 15 35 7 17 13 33
12 38 -1 4 3 7 10 7 6 0 8 3 5 6 -3 4 0 16 8 28 8 11 15 28 15 37 0 9 6 22 14
28 8 7 17 23 20 36 4 14 27 68 51 121 25 53 45 98 45 100 0 4 49 113 57 127 2
4 -1843 7 -4100 7 l-4104 0 -13 -42z"/>
<path d="M15295 14687 c-16 -12 -36 -27 -43 -34 -7 -7 -17 -13 -21 -13 -4 0
-16 -8 -27 -17 -44 -41 -347 -226 -411 -252 -18 -7 -33 -18 -33 -23 0 -5 -4
-7 -8 -4 -5 3 -42 -13 -84 -34 -42 -21 -79 -36 -82 -33 -3 4 -6 1 -6 -5 0 -7
-7 -12 -15 -12 -8 0 -23 -5 -33 -10 -35 -21 -301 -111 -412 -140 -19 -5 -57
-15 -85 -22 -27 -7 -58 -12 -67 -12 -10 1 -18 -2 -18 -6 0 -4 -11 -6 -25 -5
-14 2 -25 0 -25 -4 0 -5 -12 -7 -27 -6 -16 1 -41 -2 -58 -6 -30 -8 -76 -14
-170 -24 -43 -5 -85 -12 -120 -21 -10 -3 -39 -9 -90 -20 -16 -3 -34 -9 -40
-13 -5 -3 -12 -6 -15 -7 -20 -4 -70 -19 -95 -30 -16 -7 -34 -13 -40 -14 -14
-4 -209 -104 -215 -111 -3 -3 -25 -18 -49 -34 -25 -15 -49 -31 -55 -36 -153
-123 -286 -249 -286 -270 0 -7 -3 -10 -6 -6 -3 3 -35 -31 -70 -76 -35 -45 -68
-87 -73 -93 -5 -6 -20 -29 -34 -51 -15 -23 -31 -44 -37 -48 -6 -3 -8 -11 -5
-16 4 -5 1 -9 -4 -9 -6 0 -11 -7 -11 -15 0 -8 -4 -15 -9 -15 -5 0 -14 -13 -21
-30 -7 -16 -17 -30 -23 -30 -6 0 -7 -3 -4 -6 4 -4 -2 -19 -12 -33 -34 -50
-152 -291 -141 -291 5 0 10 4 10 8 0 10 128 204 143 217 7 6 25 28 41 50 63
85 273 295 296 295 5 0 10 4 12 9 6 17 195 137 280 179 124 61 179 83 189 76
5 -3 9 -1 9 4 0 5 10 12 23 15 12 3 47 13 77 22 63 18 74 21 150 36 108 20
141 24 280 34 47 3 112 8 145 12 33 3 71 7 85 9 14 1 25 3 25 4 0 1 8 3 19 5
15 3 54 12 126 30 43 11 67 19 75 26 6 4 12 7 15 7 28 -5 320 135 320 152 0 6
4 9 9 6 4 -3 30 10 57 29 27 19 57 40 67 47 154 106 365 301 512 472 28 32 57
66 65 75 24 27 112 141 108 141 -2 0 -16 -11 -33 -23z"/>
<path d="M12098 12285 c-2 -2 -27 -7 -57 -10 -63 -7 -205 -54 -264 -87 -75
-43 -92 -53 -97 -58 -3 -3 -25 -21 -50 -40 -24 -19 -60 -53 -80 -74 -19 -22
-41 -45 -47 -52 -7 -7 -13 -15 -13 -19 0 -3 -9 -16 -20 -28 -23 -25 -108 -192
-113 -222 -1 -11 -5 -24 -9 -30 -5 -9 -21 -68 -24 -90 0 -5 -4 -17 -7 -25 -6
-17 -37 -127 -42 -150 -2 -8 -18 -69 -35 -135 -18 -66 -34 -127 -35 -135 -2
-8 -4 -15 -5 -15 -1 0 -3 -7 -5 -16 -3 -16 -13 -53 -120 -449 -31 -113 -58
-214 -60 -225 -6 -32 -13 -60 -15 -60 -1 0 -3 -7 -5 -15 -1 -8 -19 -76 -39
-150 -38 -140 -44 -161 -52 -195 -2 -11 -15 -60 -29 -110 -14 -49 -28 -101
-31 -115 -2 -14 -7 -32 -10 -40 -3 -8 -8 -24 -10 -35 -2 -11 -18 -69 -34 -130
-31 -111 -59 -217 -65 -245 -2 -8 -4 -15 -5 -15 -1 0 -3 -7 -5 -15 -1 -8 -9
-35 -16 -60 -7 -25 -12 -48 -11 -51 0 -3 -6 -28 -14 -55 -9 -27 -26 -89 -39
-139 -13 -49 -31 -117 -40 -150 -9 -33 -18 -68 -21 -77 -2 -10 -6 -28 -10 -40
-12 -51 -15 -75 -17 -121 -1 -26 1 -47 4 -47 3 0 5 -10 4 -22 -2 -30 32 -124
63 -173 34 -53 118 -134 148 -141 13 -3 24 -10 24 -14 0 -10 80 -37 135 -46
58 -9 174 -10 168 -1 -2 4 6 7 19 7 13 0 55 9 93 21 39 11 76 21 83 21 6 1 12
5 12 10 0 4 4 8 10 8 17 0 90 34 90 42 0 5 5 8 10 8 19 0 124 82 188 146 34
35 62 65 62 67 0 3 20 34 44 69 24 36 56 98 71 137 32 84 76 241 68 241 -3 0
0 7 7 15 7 8 9 15 5 15 -4 0 -2 7 5 15 7 8 10 15 7 15 -3 0 -1 15 5 33 5 17
11 41 13 52 2 11 4 20 5 20 1 0 3 7 5 15 4 14 19 71 30 113 3 9 7 26 9 36 8
37 66 246 76 278 6 18 8 37 5 43 -3 5 -2 10 3 10 8 0 24 62 21 80 -1 3 5 21
13 40 8 19 16 38 16 43 1 4 2 8 3 10 0 1 2 11 4 22 3 11 18 72 35 135 34 127
38 142 44 168 2 9 14 52 26 94 11 43 23 85 25 95 2 10 25 95 50 188 25 94 48
180 51 192 2 12 9 34 14 48 5 14 7 25 4 25 -2 0 0 8 5 19 6 10 13 33 16 52 3
19 10 48 16 65 5 17 12 40 14 50 2 10 14 53 25 94 11 41 22 82 25 90 2 8 8 33
13 55 6 22 17 64 25 93 9 28 13 52 11 52 -3 0 0 8 5 18 6 11 12 30 15 43 3 13
28 111 56 216 27 106 50 212 51 235 3 95 -21 180 -73 260 -32 51 -124 138
-145 138 -7 0 -13 4 -13 9 0 9 -68 37 -115 46 -39 8 -151 15 -157 10z m-252
-985 c107 -67 146 -203 99 -350 -7 -23 -16 -59 -20 -85 -1 -11 -15 -65 -29
-120 -26 -96 -55 -145 -86 -145 -5 0 -10 -4 -10 -9 0 -6 -26 -9 -57 -8 -42 2
-68 9 -94 27 -43 28 -94 100 -107 150 -13 50 -6 134 16 191 6 15 9 29 6 32 -2
2 0 17 6 32 6 15 13 44 16 64 3 20 9 41 12 46 4 6 7 21 8 35 1 14 3 26 4 28 1
1 3 5 5 10 13 50 20 63 38 80 59 53 129 61 193 22z"/>
</g>
</svg>
