<?xml version="1.0" encoding="UTF-8"?>
<svg width="50px" height="50px" viewBox="0 0 50 50" version="1.1" xmlns="http://www.w3.org/2000/svg" xmlns:xlink="http://www.w3.org/1999/xlink">
    <!-- Generator: Sketch 63.1 (92452) - https://sketch.com -->
    <title>Icon/Eletric</title>
    <desc>Created with Sketch.</desc>
    <g id="Icon/Eletric" stroke="none" stroke-width="1" fill="none" fill-rule="evenodd">
        <g>
            <circle id="Oval" fill="#D8D8D8" cx="25" cy="25" r="25"></circle>
            <g id="Eletric" transform="translate(14.000000, 11.000000)">
                <path d="M10.725,17.5674909 C14.3916667,11.9157744 16.225,8.01188749 16.225,5.85583031 C16.225,2.62174453 13.7625661,0 10.725,0 C7.68743388,0 5.225,2.62174453 5.225,5.85583031 C5.225,8.01188749 7.05833333,11.9157744 10.725,17.5674909 Z" id="water" fill-opacity="0.82" fill="#4550E6" transform="translate(10.725000, 8.783745) rotate(180.000000) translate(-10.725000, -8.783745) "></path>
                <g id="Wave" transform="translate(0.000000, 21.747222)" stroke="#4550E6" stroke-linecap="square" stroke-opacity="0.8" stroke-width="2">
                    <path d="M0,4.40232825 C0.904523374,5.30600576 1.60349462,5.75784452 2.09691373,5.75784452 C2.59033285,5.75784452 3.33160326,5.30600576 4.32072495,4.40232825 C5.28577511,5.30600576 6.00963408,5.75784452 6.49230187,5.75784452 C6.97496966,5.75784452 7.69140737,5.30600576 8.64161499,4.40232825 C9.62158781,5.30600576 10.3695584,5.75784452 10.8855267,5.75784452 C11.4014951,5.75784452 12.1830191,5.30600576 13.2300988,4.40232825 C14.0432984,5.30600576 14.6915175,5.75784452 15.1747562,5.75784452 C15.6579949,5.75784452 16.4113962,5.30600576 17.4349602,4.40232825 C18.3215628,5.30600576 19.0077446,5.75784452 19.4935055,5.75784452 C19.9792663,5.75784452 20.738449,5.30600576 21.7710535,4.40232825" id="wave-2"></path>
                    <path d="M0,-1.05344777e-15 C0.904523374,1.58350209 1.60349462,2.37525313 2.09691373,2.37525313 C2.59033285,2.37525313 3.33160326,1.58350209 4.32072495,-1.05344777e-15 C5.28577511,1.58350209 6.00963408,2.37525313 6.49230187,2.37525313 C6.97496966,2.37525313 7.69140737,1.58350209 8.64161499,-1.05344777e-15 C9.62158781,1.58350209 10.3695584,2.37525313 10.8855267,2.37525313 C11.4014951,2.37525313 12.1830191,1.58350209 13.2300988,-1.05344777e-15 C14.0432984,1.58350209 14.6915175,2.37525313 15.1747562,2.37525313 C15.6579949,2.37525313 16.4113962,1.58350209 17.4349602,-1.05344777e-15 C18.3215628,1.58350209 19.0077446,2.37525313 19.4935055,2.37525313 C19.9792663,2.37525313 20.738449,1.58350209 21.7710535,-1.05344777e-15" id="wave-1"></path>
                </g>
                <path d="M10.7275073,5.79787639 L9.72387314,9.49722207 L12.9275073,10.1897491 L10.7275073,14.5816219 L11.7146462,10.940744 L8.5275073,10.1897491 L10.7275073,5.79787639 Z" id="Lighting" fill="#FFFFFF" transform="translate(10.727507, 10.189749) rotate(11.000000) translate(-10.727507, -10.189749) "></path>
            </g>
        </g>
    </g>
</svg>