<?xml version="1.0" encoding="UTF-8"?>
<svg width="80px" height="30px" viewBox="0 0 80 30" version="1.1" xmlns="http://www.w3.org/2000/svg" xmlns:xlink="http://www.w3.org/1999/xlink">
    <!-- Generator: Sketch 63.1 (92452) - https://sketch.com -->
    <title>Logo</title>
    <desc>Created with Sketch.</desc>
    <defs>
        <rect id="path-1" x="0" y="0" width="80" height="30"></rect>
    </defs>
    <g id="Symbols" stroke="none" stroke-width="1" fill="none" fill-rule="evenodd">
        <g id="Nav/Header" transform="translate(-15.000000, -25.000000)">
            <g id="Nav/Bar">
                <g>
                    <g id="Product/Icons" transform="translate(15.000000, 15.000000)">
                        <g id="Logo" transform="translate(0.000000, 10.000000)">
                            <mask id="mask-2" fill="white">
                                <use xlink:href="#path-1"></use>
                            </mask>
                            <g id="Background"></g>
                            <path d="M54.3575814,5.59701493 L80,5.59701493 L78.2615309,9.46510901 C78.2615309,9.46510901 70.9020119,14.4272095 56.1829739,24.3514105 C55.9693451,24.4954481 56.0960504,24.3514105 72.6115065,24.3514105 C72.6863274,24.3514105 70.8733472,27.9850746 70.8730374,27.9850746 C67.2222524,27.9850746 58.8196519,27.9850746 45.6652361,27.9850746 C46.8185863,25.2124562 47.4270505,23.8058766 47.4906286,23.7653356 C62.4414625,14.2318512 69.9168794,9.46510901 69.9168794,9.46510901 C69.9168794,9.46510901 64.324804,9.46510901 53.140653,9.46510901 C53.1010041,9.46510901 53.5066468,8.17574432 54.3575814,5.59701493 Z" id="Rectangle" fill="#EF6B00" fill-rule="evenodd" mask="url(#mask-2)"></path>
                            <g id="Y" stroke-width="1" fill-rule="evenodd" mask="url(#mask-2)">
                                <g transform="translate(30.901288, 0.000000)">
                                    <path d="M8.47615928,17.9088672 C8.48643573,18.0613496 8.47166527,18.2144856 8.43243458,18.3621929 L6.00677331,27.4950376 C5.70708723,28.6233841 4.71975516,29.4339113 3.55464559,29.5080544 C2.77993826,29.5573539 2.11194879,28.9692946 2.06264934,28.1945873 C2.05299297,28.042844 2.06802221,27.8905393 2.10715118,27.7436101 L4.5357068,18.6243906 C4.83606438,17.4965488 5.82130375,16.6852008 6.98581335,16.6067194 C7.75693919,16.5547499 8.42418979,17.1377414 8.47615928,17.9088672 Z M5.95966057,19.6175347 C5.71073233,19.559056 5.4615298,19.7134459 5.40305113,19.9623741 L5.40305113,19.9623741 L5.16377199,20.9809221 C5.08022195,21.3365725 5.24164838,21.7046552 5.55987159,21.8841039 C5.59794133,21.9055717 5.63885901,21.921541 5.68140625,21.9315363 C5.93033449,21.990015 6.17953702,21.8356251 6.23801569,21.5866969 L6.23801569,21.5866969 L6.47729483,20.5681489 C6.56084487,20.2124985 6.39941844,19.8444157 6.08119523,19.6649671 C6.04312549,19.6434992 6.00220781,19.6275299 5.95966057,19.6175347 Z" id="Y/Bottom" fill="#EF6B00"></path>
                                    <g id="Y/Right" stroke-width="1" fill="none" transform="translate(6.206463, 0.000000)">
                                        <path d="M16.1220644,2.38521878 C19.9177436,3.19966268 23.759454,2.94645885 27.6471957,1.62560728 C23.5352043,4.59364686 19.6628064,5.55861585 16.0300019,4.52051425 C11.5452532,3.23896307 7.67285522,4.20393206 4.41280809,7.41542122 C7.84584228,3.12360319 11.7489277,1.44686905 16.1220644,2.38521878 Z" id="Rectangle" fill="#EF6B00" transform="translate(16.030002, 4.520514) rotate(-7.000000) translate(-16.030002, -4.520514) "></path>
                                        <path d="M8.5710357,7.54040509 C10.3671943,7.82009429 12.2109212,7.57587954 14.1022164,6.80776085 C12.064234,8.3889675 10.1887949,8.98245154 8.47589905,8.58821297 C6.36130481,8.10151985 4.48586569,8.69500389 2.84958172,10.3686651 C4.5944663,8.16091858 6.50161763,7.21816525 8.5710357,7.54040509 Z" id="Rectangle-Copy" fill="#EF6B00" transform="translate(8.475899, 8.588213) rotate(-15.000000) translate(-8.475899, -8.588213) "></path>
                                        <path d="M5.93602746,11.14543 C7.73218603,11.4251191 9.57591293,11.1809044 11.4672081,10.4127857 C9.42922576,11.9939924 7.55378665,12.5874764 5.84089081,12.1932378 C3.72629656,11.7065447 1.85085745,12.3000288 0.214573476,13.9736899 C1.95945806,11.7659434 3.86660939,10.8231901 5.93602746,11.14543 Z" id="Rectangle-Copy-2" fill="#EF6B00" transform="translate(5.840891, 12.193238) rotate(-15.000000) translate(-5.840891, -12.193238) "></path>
                                    </g>
                                    <path d="M0.918723067,5.19763543 C0.914183414,7.26941778 1.5129045,8.95707055 2.71488633,10.2605938 C3.71773615,11.3481626 4.42835642,12.5410473 4.84674715,13.8392477 L4.90361654,13.9210934 C3.33326853,11.6766605 3.22015167,11.7801498 2.41262953,10.9795324 C1.45604085,10.031123 0.763608151,9.1828462 0.335331421,8.4347019 C-0.352970467,7.23232714 0.111169802,5.3342927 0.889961775,5.20025245 Z M12.041562,5.19274329 L8.34573032,9.55691835 L5.31777653,13.4328538 C4.82294835,11.847128 4.0925649,10.6155179 3.12662618,9.73802332 C2.09490406,8.8007687 1.51812841,7.28610682 1.39629925,5.19403769 L12.041562,5.19274329 L12.041562,5.19274329 Z" id="Y/Left" fill="#EF6B00"></path>
                                </g>
                            </g>
                            <path d="M12.3175966,5.62281375 C14.2702253,5.58841532 19.5491953,5.58841532 28.1545064,5.62281375 C27.0445637,8.34136311 26.4580115,9.70063779 26.3948498,9.70063779 C12.3175966,9.70063779 14.6051502,9.70063779 12.3175966,9.70063779 C10.0300429,9.70063779 6.97912651,13.0847956 6.51072961,17.4616577 C5.80686695,24.0387933 5.10300429,24.0387933 22.8755365,24.0387933 C22.7914944,24.3043735 22.2049422,25.6198006 21.1158798,27.9850746 C21.1158798,27.9850746 17.4206009,27.9850746 10.0300429,27.9850746 C0,27.9850746 0,26.0224519 0,21.4079391 C0,17.4616577 2.28755365,5.62281375 12.3175966,5.62281375 Z" id="Rectangle" fill="#EF6B00" fill-rule="evenodd" mask="url(#mask-2)"></path>
                        </g>
                    </g>
                </g>
            </g>
        </g>
    </g>
</svg>